<svg xmlns="http://www.w3.org/2000/svg" width="1480" height="586" fill="none"><path fill="#fff" d="M220.322 71.163c-.235-3.984 1.855-7.405 5.482-9.083.778-.36 1.864-.192 2.315-1.17l2.216-.011c.086.14.155.378.275.407 4.808 1.052 5.948 1.85 8.299 5.846 49.473 4.94 89.513 26.243 119.988 64.091 6.177.05 9.621 2.088 10.994 6.514 1.22 3.944-.275 8.025-3.763 10.308-3.42 2.227-8.188 2.059-11.387-.397-3.681-2.826-4.486-7.011-2.183-12.364-28.861-35.729-66.759-55.975-113.255-60.79-1.381.46-1.577 1.333-2.105 1.911-2.588 2.857-6.611 3.971-10.298 2.81-3.777-1.183-6.357-4.361-6.578-8.072zM94.102 291.177c2.835 3.113 7.463 4.058 11.348 2.3 3.876-1.753 5.916-5.528 5.339-9.904-.55-4.187-3.939-6.974-9.646-7.822-18.603-42.538-11.658-94.806 22.221-132.836 34.057-38.24 82.966-48.914 118.685-43.603 2.65 5.218 6.234 7.426 10.928 6.72 4.003-.603 7.357-3.775 7.961-7.516.651-4.103-1.338-7.987-5.028-9.824-4.145-2.057-8.425-1.029-12.404 2.856-53.259-4.443-97.155 12.14-130.784 52.42-31.566 41.754-37.212 86.815-18.783 135.159-2.865 4.495-2.85 8.728.164 12.05zm85.082-17.764c5.445 5.045 11.92 8.554 18.478 12.052 30.55 16.311 61.033 32.74 91.535 49.119.871.465 1.664 1.093 2.887 1.317-.102-29.696-.194-59.23-.293-88.711 4.973-3.431 6.614-7.001 5.234-11.27-1.255-3.897-4.646-6.414-8.796-6.513-4.322-.109-8.059 2.248-9.438 6.08-1.493 4.169-.289 8.443 5.285 11.877.082 25.311.162 50.638.249 76.229a252.348 252.348 0 01-3.115-1.626c-28.345-15.191-56.703-30.361-85.041-45.582-12.669-6.808-21.509-16.847-26.649-29.847-2.069-5.228-3.342-10.661-3.519-16.225 5.13-3.131 6.871-6.622 5.6-11.11-1.106-3.925-4.673-6.667-8.881-6.82-4.154-.147-8.056 2.4-9.417 6.157-1.586 4.392.03 8.21 4.935 11.554.172 1.287.347 2.598.503 3.921 1.867 15.509 8.781 28.589 20.443 39.398zm216.662 142.871c-3.763-4.028-10.471-4.048-14.259-.037-4.344 4.607-3.11 10.102 3.399 15.047.064 18.667.124 37.349.188 56.373-45.296-24.343-90.319-48.532-135.215-72.659-.361-5.594-2.941-9.002-7.358-9.998-4.228-.959-8.521.843-10.648 4.454-2.053 3.502-1.502 7.919 1.36 10.848 3.228 3.32 7.603 3.703 13.021 1.086 48.462 26.052 96.988 52.128 145.506 78.209.154.085.347.108.531.137.084.012.173-.03.253-.066.081-.036.158-.097.224-.136-.081-22.797-.146-45.589-.23-68.371 6.354-4.81 7.541-10.275 3.228-14.887zm-257.502-81.939c7.618 5.777 16.154 10.316 24.703 14.897 50.653 27.13 101.244 54.347 151.858 81.539 5.303 2.845 10.594 5.71 15.825 8.522.557 5.768 3.069 9.064 7.566 10.025 4.188.893 8.325-.788 10.468-4.269 2.156-3.5 1.713-7.804-1.131-10.872-3.179-3.426-7.175-3.837-13.25-1.292-.892-.477-1.847-.993-2.801-1.51-28.486-15.296-56.969-30.608-85.465-45.898-28.813-15.455-57.644-30.899-86.467-46.348-5.801-3.116-11.339-6.597-16.504-10.472.22-8.094-3.371-12.278-10.127-11.936-5.543.278-9.482 4.982-8.796 10.479.738 5.938 5.912 8.594 14.121 7.135zm5.937-26.673c8.675 8.095 18.752 14.236 29.329 19.816 24.654 12.998 49.125 26.324 73.659 39.523.626.333 1.381.524 1.768 1.157.426 5.489 3.009 8.819 7.639 9.852 4.007.889 8.335-.961 10.409-4.45 2.081-3.519 1.573-7.846-1.286-10.854-3.182-3.348-7.505-3.75-13.09-1.134-7.437-3.995-14.752-7.938-22.077-11.874-18.515-9.935-36.915-20.08-55.583-29.742-25.426-13.152-43.198-32.523-52.978-58.624-3.195-8.539-5.054-17.358-5.761-26.343 5.007-3.606 6.548-7.319 4.922-11.655-1.461-3.899-5.009-6.193-9.401-6.08-4.088.106-7.669 2.739-8.828 6.513-1.38 4.458.425 8.083 5.721 11.482.17 1.66.312 3.336.527 5.006.215 1.671.479 3.337.766 5.001 4.338 24.389 15.807 45.179 34.264 62.406zm2.155-25.937c3.056 2.556 7.59 2.97 11.102 1.018 3.642-2.031 5.527-6.121 4.596-10.011-1.073-4.52-4.536-6.84-10.808-7.254-15.482-25.981-14.451-62.527 8.32-89.572 23.291-27.658 59.187-34.299 84.888-27.562 1.99 5.582 4.863 7.943 9.656 7.944 4.308.002 7.918-2.521 9.175-6.406 1.227-3.789-.152-7.867-3.433-10.183-3.878-2.731-7.964-2.307-13.129 1.229-36.063-6.672-66.64 2.191-91.359 28.432-25.825 31.21-28.588 64.711-10.875 100.434-2.288 4.834-1.675 8.957 1.867 11.931zm59.779 103.728c-3.021-.699-5.821.052-8.363 1.54-1.349-.723-2.549-1.37-3.759-2.012-14.252-7.642-28.389-15.471-42.772-22.867-31.945-16.419-55.585-40.333-70.874-71.836-5.479-11.273-9.347-23.069-11.661-35.252 4.476-4.431 5.513-8.425 3.305-12.418-1.912-3.445-6.015-5.413-9.99-4.787-4.007.618-7.287 3.744-7.944 7.544-.804 4.669 1.393 8.017 7.062 10.728.164.666.33 1.357.491 2.038.044.178.083.346.122.514 10.885 47.709 38.358 83.761 82.458 108.028 11.996 6.605 24.176 12.906 36.257 19.357 4.584 2.441 9.138 4.938 13.616 7.354.426 5.49 2.871 8.865 7.032 9.903 4.227 1.062 8.616-.582 10.844-4.05 2.102-3.276 1.79-7.763-.76-10.704-1.349-1.54-3.042-2.615-5.064-3.08zm165.048-203.185c1.648 2.699 4.352 3.924 7.3 4.629 3.308 11.946 5.213 23.918 5.356 36.122.061 5.227-.049 10.468-.027 15.694.138 31.577.282 63.163.455 94.732.059 10.645.201 21.278.266 31.933.011 2.549.193 5.108-.104 7.551-4.856 3.181-6.555 6.825-5.262 11.057 1.248 4.094 4.817 6.694 9.222 6.688 4.151-.004 7.796-2.471 9.103-6.169 1.554-4.424-.127-8.202-5.431-11.801-.012-4.247-.021-8.407-.036-12.576-.17-35.122-.321-70.256-.53-105.381-.047-8.071-.216-16.133-.008-24.207.299-11.835-.714-23.56-3.199-35.164-.773-3.63-1.652-7.246-2.465-10.775 3.707-4.435 4.248-8.342 1.727-12.03-2.346-3.423-6.522-4.988-10.626-3.965-3.845.967-6.824 4.459-7.066 8.312-.14 1.925.319 3.702 1.325 5.35zm-16.606 264.04c1.109 3.782 4.673 6.5 8.715 6.653 4.194.149 7.91-2.094 9.409-5.731.731-1.774.9-3.59.476-5.478-.724-3.174-2.988-5.165-5.884-6.809-.197-61.516-.408-122.972-.615-184.482 4.933-3.432 6.539-7.019 5.066-11.397-1.302-3.869-5.03-6.5-9.183-6.457-4.119.036-7.913 2.76-9.122 6.577-1.388 4.361.258 7.893 5.43 11.444.372 61.383.755 122.849 1.133 184.472-5.072 3.352-6.718 6.81-5.425 11.208zm-13.48-231.52c-4.282-32.063-19.291-58.397-46.39-77.785-27.074-19.366-57.617-25.767-91.036-20.574-4.463-3.919-8.495-4.703-12.602-2.491-3.428 1.837-5.451 5.806-4.824 9.448.714 4.1 4.012 7.198 8.345 7.786 1.882.256 3.672-.056 5.381-.857 2.919-1.373 4.47-3.814 5.388-6.56 63.217-11.396 122.408 33.125 127.863 91.636-4.652 3.453-6.088 7.191-4.424 11.465 1.451 3.715 5.198 6.168 9.212 6.043 4.271-.141 8.101-3.079 9.092-6.981 1.126-4.456-.797-8.022-6.005-11.13zM70.1 207.087c2.364-1.507 3.764-3.652 4.21-6.313.625-3.767-1.17-6.684-3.88-9.029 14.089-60.014 65.042-102.166 117.422-113.31 4.41 3.977 8.532 4.783 12.705 2.492 3.672-2.024 5.562-6.13 4.614-9.984-1.008-4.1-4.512-6.97-8.828-7.235-4.552-.276-8.028 2.216-9.931 6.968-64.634 17.678-105.97 57.308-123.926 119.632-6.651 2.858-9.151 8.307-6.054 13.609 2.694 4.642 9.06 6.11 13.668 3.17zm283.129 7.063c1.949 3.589 6.183 5.604 10.183 4.849 4.1-.777 7.272-3.914 7.749-7.694.618-4.849-1.453-7.967-6.937-10.459-9.146-40.363-31.888-71.011-68.503-92.104-1.071-7.28-5.642-10.956-11.959-9.643-5.22 1.078-8.525 6.507-7.005 11.508 1.86 6.122 7.499 7.906 15.783 4.792 34.233 19.914 55.554 48.758 64.133 86.287-4.775 4.78-5.702 8.284-3.444 12.464zm-174.287-33.99c-5.664-.861-9.687.776-11.742 4.778-1.782 3.464-1.039 7.841 1.788 10.587 2.955 2.872 7.5 3.574 11.234 1.716 1.761-.883 3.162-2.147 4.096-3.841 1.472-2.675 1.207-5.452.41-8.16 28.22-25.529 73.324-17.679 91.146 12.635-2.873 4.923-2.742 8.945.42 12.24 2.814 2.933 7.4 3.788 11.177 2.083 3.787-1.71 5.944-5.544 5.413-9.615-.565-4.421-3.775-7.061-10.009-8.124-21.701-35.18-71.668-43.064-103.933-14.299zm36.043 15.093c4.542 4.382 8.396 5.314 12.719 3.186 3.685-1.815 5.77-5.642 5.164-9.502-.605-3.898-3.814-7.101-7.728-7.715-5.056-.786-8.219 1.107-11.414 6.8-.69.23-1.39.466-2.086.686-17.065 5.561-28.611 20.747-28.368 38.014.223 15.976 7.895 27.89 22.466 35.657 4.738 2.526 9.489 5.031 14.117 7.483.495 5.729 2.884 8.908 7.358 9.998 4.139 1.001 8.305-.61 10.539-4.069 2.168-3.355 1.881-7.613-.724-10.686-3.059-3.628-6.978-4.123-13.592-1.684-4.729-2.492-9.46-5.048-14.264-7.494-14.46-7.376-21.613-23.044-17.06-38.128 3.443-11.377 11.295-18.776 22.873-22.546zm-15.572 118.569c27.102 14.557 54.271 29.162 81.302 43.686.484 5.71 2.99 8.997 7.441 9.986 4.186.933 8.349-.726 10.509-4.178 2.216-3.55 1.725-8.017-1.223-11.086-3.204-3.321-7.251-3.713-13.104-1.137-26.995-14.507-54.097-29.065-81.322-43.699-.535-5.731-2.946-8.987-7.288-9.965-4.267-.96-8.361.58-10.574 3.988-2.235 3.435-1.906 7.846.806 10.905 3.099 3.526 7.153 3.991 13.453 1.5zm82.77-160.824c-5.508-.229-10.12 4.209-9.925 9.572.097 2.713 1.259 4.993 3.404 6.725 3.017 2.452 6.517 2.615 10 1.537 11.6 10.603 21.042 29.602 22.841 45.293 1.226 10.713.053 21.433.651 32.018-5.163 3.432-6.863 7.179-5.406 11.553 1.228 3.685 4.913 6.329 8.955 6.417 4.253.1 8.065-2.571 9.366-6.573 1.408-4.308-.279-7.93-5.357-11.41-.021-5.622-.222-11.288-.011-16.949.404-11.183-1.01-22.101-4.753-32.708-4.403-12.441-11.381-23.386-20.88-32.934.963-7.423-2.552-12.279-8.885-12.541zM292.41 397.21c2.918.571 5.644-.071 8.085-1.599 13.991 7.508 27.834 14.94 41.959 22.52-.052-15.3-.098-30.107-.149-45.05 4.994-3.227 6.689-6.856 5.385-11.273-1.112-3.767-4.931-6.547-9.079-6.622-4.021-.075-7.755 2.433-9.159 6.14-1.663 4.414-.099 8.021 5.199 11.904.036 10.711.073 21.446.104 32.441-10.402-5.585-20.527-11.032-30.555-16.424-.415-5.598-2.914-8.979-7.268-9.976-4.114-.939-8.385.71-10.57 4.101-2.169 3.355-1.77 7.941.913 10.891 1.381 1.508 3.089 2.548 5.135 2.947zM155.351 146.135c6.195 1.751 10.1.863 12.806-2.847 2.386-3.27 2.303-7.781-.202-10.941-2.537-3.192-6.99-4.435-10.911-3.051-4.407 1.553-6.416 5.002-6.209 10.971-15.637 12.546-27.126 27.928-34.536 45.994-5.726 1.464-8.511 4.249-8.843 8.707-.302 4.068 2.115 7.755 6.063 9.217 3.842 1.437 8.156.401 10.81-2.599 1.281-1.459 2.06-3.136 2.26-5.047.334-3.116-1.076-5.654-3.084-7.981 6.983-16.796 17.554-30.94 31.846-42.423zm98.634 136.524c1.26 3.78 5.114 6.449 9.242 6.408 4.271-.038 8.071-2.857 9.195-6.813 1.211-4.253-.623-8.053-5.559-11.071.188-15.575-.567-31.085.045-46.51 4.129-3.389 5.367-7.326 3.624-11.373-1.626-3.773-5.623-5.985-10.045-5.547-4.04.396-7.251 3.237-8.167 7.221-1.077 4.682.844 7.828 6.807 11.062.047 15.061.094 30.122.15 45.114-5.044 3.461-6.74 7.193-5.292 11.509zm68.412 15.945c-1.013-3.918-5.044-6.773-9.234-6.77-4.118-.004-7.895 2.685-9.166 6.527-1.431 4.311.365 8.172 5.4 11.436.046 14.474.096 28.996.148 43.479-4.783 3.073-6.533 6.799-5.245 11.021 1.232 4.027 4.957 6.736 9.241 6.74 4.136-.007 8.012-2.743 9.173-6.493 1.389-4.464-.376-8.191-5.433-11.428-.046-14.411-.089-28.86-.146-43.519 5.069-2.685 6.313-6.907 5.262-10.993zm-75.253-57.115c1.377-4.316-.335-8.062-5.387-11.354.566-4.703-.089-9.081-3.05-12.947-3.026-3.929-7.1-6.143-12.123-6.604-8.303-.746-17.164 4.292-18.574 15.438-5.721 4.885-3.96 11.514-.276 14.428 4.282 3.391 10.729 2.689 13.951-1.641 1.631-2.184 2.189-4.62 1.609-7.307-.836-3.859-3.564-6.002-7.167-7.278 2.039-5.052 6.606-7.431 11.486-6.116 5.11 1.378 7.358 5.666 6.355 12.143-4.931 3.291-6.645 7.097-5.158 11.415 1.324 3.842 5.035 6.382 9.251 6.338 4.292-.025 7.826-2.566 9.083-6.515zm99.971 29.136c-1.29-3.953-5.198-6.691-9.379-6.567-4.131.12-7.952 2.924-9.012 6.714-1.005 3.565-.18 8.224 5.48 11.171l.113 33.355c-4.731 2.99-6.541 6.765-5.346 10.981 1.082 3.823 4.762 6.625 8.92 6.821 3.986.186 7.793-2.265 9.304-5.922.775-1.891.811-3.842.321-5.753-.75-2.903-2.859-4.848-5.464-6.184-.035-11.274-.077-22.352-.115-33.381 4.82-3.095 6.575-6.938 5.178-11.235z"/><g fill="#fff" clip-path="url(#clip0)"><path d="M456.385 249.419V100.308c0-8.08 4.361-12.44 12.439-12.44h70.545c30.552 0 55.133 23.244 55.133 55.287 0 23.245-14.917 42.724-37.614 48.894l34.071 50.505c1.709 2.156 2.552 5.006 2.552 7.93 0 7.484-6.071 13.581-13.579 13.581-4.683 0-8.772-2.454-11.249-5.997l-40.96-60.691-41.752.05v51.992c0 8.178-6.616 14.794-14.793 14.794s-14.793-6.616-14.793-14.794zm74.981-75.287c18.955 0 33.525-13.382 33.525-30.952 0-17.397-14.421-30.952-32.435-30.952h-46.485v61.879h45.395v.025zM739.979 235.566c7.161 0 13.009 5.823 13.009 13.01 0 7.162-5.823 13.011-13.009 13.011H639.873c-8.078 0-12.439-4.362-12.439-12.416V100.308c0-8.08 4.361-12.44 12.439-12.44h97.504c7.162 0 13.009 5.848 13.009 13.01 0 7.161-5.823 13.01-13.009 13.01h-78.97v47.705h77.137c6.764 0 12.241 5.501 12.241 12.242 0 6.74-5.501 12.242-12.241 12.242h-77.137v49.464h81.572v.025zM781.408 249.493V95.698c0-5.749 4.659-10.408 10.407-10.408 3.122 0 6.022 1.24 7.806 3.519l76.368 96.45 76.046-96.128c1.859-2.354 4.882-3.791 8.128-3.791 5.724 0 10.407 4.659 10.407 10.358v153.795c0 8.129-6.591 14.721-14.719 14.721-8.152 0-14.718-6.592-14.718-14.721l.024-105.148-58.18 75.311c-1.636 2.107-4.089 3.296-6.988 3.296s-5.327-1.189-6.988-3.296l-58.18-75.311.024 105.148c0 8.129-6.591 14.721-14.718 14.721-8.128 0-14.719-6.592-14.719-14.721zM999.043 174.728c0-49.563 41.827-90.032 93.017-90.032 51.2 0 93.02 40.469 93.02 90.032 0 49.563-41.82 90.032-93.02 90.032-51.19 0-93.017-40.493-93.017-90.032zm155.087 0c0-34.298-27.77-62.078-62.07-62.078-34.29 0-62.07 27.78-62.07 62.078s27.78 62.078 62.07 62.078c34.3 0 62.07-27.78 62.07-62.078zM1334.03 100.878c0 7.161-5.83 13.01-13.01 13.01h-45.27V248.75c0 8.549-6.92 15.488-15.49 15.488-8.55 0-15.49-6.914-15.49-15.488V113.888h-45.37c-7.16 0-13.01-5.824-13.01-13.01 0-7.162 5.85-13.01 13.01-13.01h121.59c7.19.024 13.04 5.848 13.04 13.01zM1466.99 235.566c7.16 0 13.01 5.823 13.01 13.01 0 7.162-5.82 13.011-13.01 13.011h-100.08c-8.08 0-12.44-4.362-12.44-12.416V100.308c0-8.08 4.36-12.44 12.44-12.44h97.5c7.16 0 13.01 5.848 13.01 13.01 0 7.161-5.82 13.01-13.01 13.01h-78.99v47.705h77.13c6.74 0 12.25 5.501 12.25 12.242 0 6.74-5.51 12.242-12.25 12.242h-77.13v49.464h81.57v.025zM585.483 337.621c0 7.162-5.823 13.01-13.009 13.01h-45.271v134.837c0 8.55-6.914 15.489-15.487 15.489a15.462 15.462 0 01-15.487-15.489V350.607h-45.345c-7.161 0-13.009-5.824-13.009-13.011 0-7.162 5.848-13.01 13.009-13.01h121.59c7.161.025 13.009 5.873 13.009 13.035zM718.447 472.282c7.161 0 13.008 5.823 13.008 13.01 0 7.162-5.823 13.011-13.008 13.011H618.365c-8.078 0-12.439-4.362-12.439-12.416V337.073c0-8.079 4.361-12.44 12.439-12.44h97.505c7.161 0 13.008 5.848 13.008 13.01s-5.823 13.011-13.008 13.011h-78.995v47.704h77.136c6.765 0 12.241 5.502 12.241 12.242 0 6.766-5.501 12.242-12.241 12.242h-77.136v49.465h81.572v-.025zM914.993 486.678c0 7.88-6.368 14.323-14.298 14.323-5.748 0-10.555-3.37-13.009-8.202l-15.858-32.539h-87.841l-15.858 32.539c-2.404 4.832-7.236 8.202-13.009 8.202-7.93 0-14.298-6.443-14.298-14.323 0-2.33.521-4.511 1.512-6.468l76.839-152.234c1.66-3.197 4.832-5.427 8.722-5.427 3.89 0 7.062 2.205 8.722 5.427l76.839 152.234c1.041 1.957 1.537 4.138 1.537 6.468zm-53.919-48.498l-33.154-68.001-33.154 68.001h66.308zM935.111 486.206V332.411c0-5.749 4.659-10.408 10.407-10.408 3.123 0 6.022 1.239 7.806 3.519l76.366 96.45 76.05-96.128c1.86-2.354 4.88-3.792 8.13-3.792 5.74 0 10.4 4.659 10.4 10.359v153.795c0 8.129-6.59 14.72-14.72 14.72-8.12 0-14.71-6.591-14.71-14.72l.02-105.148-58.18 75.311c-1.64 2.106-4.09 3.296-6.99 3.296-2.9 0-5.33-1.19-6.99-3.296l-58.176-75.311.025 105.148c0 8.129-6.592 14.72-14.719 14.72a14.69 14.69 0 01-14.719-14.72zM1148.53 490.667c0-5.402 3.64-9.219 8.77-9.219 5.13 0 8.63 3.792 8.63 9.219 0 5.254-3.37 9.219-8.78 9.219-5.1 0-8.62-3.941-8.62-9.219zM1173.78 462.666c0-20.594 17.84-37.445 39.67-37.445 12.81 0 24.04 6.17 30.33 15.116 1.49 1.909 2.28 4.089 2.28 6.072 0 4.015-3.34 7.162-7.61 7.162-2.77 0-5.42-1.883-7.11-3.965-3.96-5.502-10.06-9.814-18.16-9.814-12.56 0-22.72 10.359-22.72 22.874 0 12.391 10.16 22.675 22.72 22.675 8.1 0 14.22-3.569 18.21-9.268 1.66-2.206 4.26-4.065 7.04-4.065 4.36 0 7.63 3.098 7.63 7.162 0 2.008-.84 4.188-2.33 6.072-6.44 8.624-17.42 14.844-30.3 14.844-21.81 0-39.65-16.827-39.65-37.42zM1255.06 462.644c0-20.593 17.76-37.445 39.47-37.445 21.78 0 39.55 16.852 39.55 37.445 0 20.594-17.77 37.445-39.55 37.445-21.71 0-39.47-16.851-39.47-37.445zm62.29 0c0-12.49-10.36-22.774-22.85-22.774-12.41 0-22.77 10.284-22.77 22.774s10.36 22.775 22.77 22.775c12.49 0 22.85-10.285 22.85-22.775zM1348.13 491.242v-57.741c0-4.51 2.95-7.682 8.05-7.682 4.11 0 6.96 2.081 7.58 5.799l.25 8.748c4.24-9.492 13.43-15.167 23.34-15.167 11.1 0 19.5 6.518 23.29 16.034 4.41-10.26 14.43-16.034 25.08-16.034 19.01 0 30.95 14.349 30.95 32.811v33.207c0 4.932-3.52 8.525-8.35 8.525s-8.35-3.593-8.35-8.525v-32.885c0-9.987-6.96-18.214-16.75-18.214-9.34 0-17.47 8.029-17.47 18.809v32.29c0 4.932-3.52 8.525-8.35 8.525s-8.35-3.593-8.35-8.525v-32.885c0-9.987-6.97-18.214-16.75-18.214-9.57 0-17.5 8.599-17.5 19.156v31.943c0 4.932-3.52 8.525-8.35 8.525-4.83.025-8.32-3.568-8.32-8.5z"/></g><defs><clipPath id="clip0"><path fill="#fff" d="M0 0h1042.12v416.332H0z" transform="translate(437.875 84.696)"/></clipPath></defs></svg>